<svg id="logo_elecom_01.svg" xmlns="http://www.w3.org/2000/svg" width="148.25" height="35.906" viewBox="0 0 148.25 35.906">
  <defs>
    <style>
      .cls-1 {
        fill: #727171;
      }

      .cls-1, .cls-2 {
        fill-rule: evenodd;
      }

      .cls-2 {
        fill: #014099;
      }
    </style>
  </defs>
  <path id="lifestyleinnovation" class="cls-1" d="M188.526,53.317h-1.07v5.371h3.666V57.72h-2.6v-4.4Zm36.625,5.371h1.07V53.317h-1.07v5.371Zm-30.229-2.267h2.552V55.449h-2.552V54.29h2.739V53.317h-3.805v5.371h3.825V57.72h-2.759v-1.3Zm-12.565-.936L181,53.317h-1.274l2.072,3.2v2.173h1.07V56.515l2.051-3.2h-1.245Zm-35.421,3.2H148V53.317h-1.067v5.371Zm5.083,0h1.066V56.422h2.254V55.449h-2.254V54.29h2.571V53.317h-3.637v5.371Zm21.362-4.4h1.636v4.4h1.07v-4.4h1.636V53.317h-4.342V54.29ZM160.36,56.422h2.547V55.449H160.36V54.29H163.1V53.317H159.29v5.371h3.825V57.72H160.36v-1.3Zm-19.429-3.1h-1.066v5.371h3.666V57.72h-2.6v-4.4Zm29.439,2.62a1.964,1.964,0,0,0-.554-0.277,5.887,5.887,0,0,0-.593-0.171c-0.175-.041-0.346-0.081-0.517-0.118l-0.061-.013a2.638,2.638,0,0,1-.477-0.142,0.737,0.737,0,0,1-.28-0.18,0.308,0.308,0,0,1-.077-0.228,0.623,0.623,0,0,1,.069-0.3,0.458,0.458,0,0,1,.179-0.188,0.846,0.846,0,0,1,.284-0.109,1.615,1.615,0,0,1,.359-0.037,1.122,1.122,0,0,1,.712.2,0.809,0.809,0,0,1,.3.622l0.02,0.187h1.022l-0.009-.215a1.886,1.886,0,0,0-.175-0.786,1.524,1.524,0,0,0-.443-0.566,1.73,1.73,0,0,0-.639-0.318,2.726,2.726,0,0,0-1.465,0,1.843,1.843,0,0,0-.638.293,1.455,1.455,0,0,0-.465.517,1.524,1.524,0,0,0-.175.752,1.218,1.218,0,0,0,.582,1.107,2.177,2.177,0,0,0,.558.256c0.2,0.057.39,0.11,0.59,0.155L168.58,56.4c0.159,0.037.317,0.073,0.471,0.106a1.932,1.932,0,0,1,.465.151,0.76,0.76,0,0,1,.284.2,0.428,0.428,0,0,1,.082.281,0.648,0.648,0,0,1-.078.333,0.573,0.573,0,0,1-.215.2,1.129,1.129,0,0,1-.338.123,1.834,1.834,0,0,1-.887-0.029,1,1,0,0,1-.383-0.179,0.878,0.878,0,0,1-.26-0.3,0.923,0.923,0,0,1-.1-0.44V56.646H166.59v0.207a2.042,2.042,0,0,0,.183.875,1.767,1.767,0,0,0,.5.614,2.12,2.12,0,0,0,.712.346,2.97,2.97,0,0,0,.838.114,3.257,3.257,0,0,0,.724-0.085,2.157,2.157,0,0,0,.68-0.285,1.706,1.706,0,0,0,.512-0.525,1.424,1.424,0,0,0,.208-0.785,1.486,1.486,0,0,0-.159-0.713A1.389,1.389,0,0,0,170.37,55.938Zm94.588-1.648h1.636v4.4h1.066v-4.4H269.3V53.317h-4.338V54.29Zm15.519-.215a2.243,2.243,0,0,0-.749-0.635,2.407,2.407,0,0,0-2.087,0,2.2,2.2,0,0,0-.744.635,2.648,2.648,0,0,0-.444.9,3.7,3.7,0,0,0-.146,1.03,3.756,3.756,0,0,0,.146,1.033,2.651,2.651,0,0,0,.444.9,2.216,2.216,0,0,0,.748.635,2.28,2.28,0,0,0,1.042.232,2.255,2.255,0,0,0,1.041-.236,2.229,2.229,0,0,0,.749-0.631,2.7,2.7,0,0,0,.44-0.895A3.657,3.657,0,0,0,281.063,56a3.561,3.561,0,0,0-.146-1.03A2.676,2.676,0,0,0,280.477,54.074ZM280.046,56a2.985,2.985,0,0,1-.085.692,1.938,1.938,0,0,1-.252.59,1.249,1.249,0,0,1-.42.4,1.282,1.282,0,0,1-1.208,0,1.228,1.228,0,0,1-.419-0.4,1.839,1.839,0,0,1-.253-0.59A3.032,3.032,0,0,1,277.328,56a2.987,2.987,0,0,1,.081-0.687,1.9,1.9,0,0,1,.253-0.594,1.32,1.32,0,0,1,.419-0.4,1.174,1.174,0,0,1,.606-0.146,1.159,1.159,0,0,1,.6.146,1.345,1.345,0,0,1,.42.4,1.921,1.921,0,0,1,.252.594A2.886,2.886,0,0,1,280.046,56Zm-8.016,2.685h1.07V53.317h-1.07v5.371ZM287.1,53.7v3.288l-2.218-3.2-0.061-.089H283.81v5.013h1.033V55.462l2.2,3.162,0.061,0.09h1.029V53.7H287.1Zm-25.733-.383h-1.005l-2.075,5.371h1.119l0.549-1.489h1.783l0.537,1.489h1.171l-2.026-5.236Zm0.021,2.909h-1.075l0.542-1.505Zm-28.28.631-2.279-3.54h-1.013v5.371h1.034V55.193l2.254,3.495h1.037V53.317H233.11v3.54Zm7.882,0-2.214-3.442-0.061-.094H237.7v5.371h1.033v-3.5l2.259,3.5h1.033V53.317h-1.033v3.535Zm8.459-2.783a2.374,2.374,0,0,0-.805-0.635,2.733,2.733,0,0,0-2.23,0,2.353,2.353,0,0,0-.8.631,2.773,2.773,0,0,0-.488.9A3.459,3.459,0,0,0,244.971,56a3.548,3.548,0,0,0,.155,1.041,2.791,2.791,0,0,0,.484.9,2.321,2.321,0,0,0,.806.63,2.792,2.792,0,0,0,2.23,0,2.31,2.31,0,0,0,.8-0.625,2.621,2.621,0,0,0,.484-0.9A3.389,3.389,0,0,0,250.09,56a3.3,3.3,0,0,0-.159-1.033A2.6,2.6,0,0,0,249.451,54.07ZM249.02,56a2.633,2.633,0,0,1-.09.688l0,0a1.623,1.623,0,0,1-.268.582,1.275,1.275,0,0,1-.46.407,1.535,1.535,0,0,1-1.335,0,1.335,1.335,0,0,1-.464-0.407,1.772,1.772,0,0,1-.268-0.582,2.746,2.746,0,0,1-.09-0.692,2.808,2.808,0,0,1,.086-0.684,1.857,1.857,0,0,1,.276-0.594,1.391,1.391,0,0,1,2.255,0,1.77,1.77,0,0,1,.272.589A2.763,2.763,0,0,1,249.02,56Zm5.639,1.168-1.212-3.711-0.049-.142h-1.143l1.871,5.371h1.034l1.892-5.371h-1.123Z" transform="translate(-139.875 -23)"/>
  <path id="logo_elecom" class="cls-2" d="M256.636,24.359A4.685,4.685,0,0,0,253.323,23H237.7a4.681,4.681,0,0,0-3.315,1.361,6.579,6.579,0,0,0-1.372,4.057V38.538a6.75,6.75,0,0,0,1.372,4.117,4.679,4.679,0,0,0,3.315,1.36h15.621a4.676,4.676,0,0,0,3.313-1.36,6.751,6.751,0,0,0,1.373-4.117V28.416a6.579,6.579,0,0,0-1.373-4.057m-3.584,13.579c0,0.446-.175.245-0.5,0.561a1.676,1.676,0,0,1-1.192.489H239.759a1.688,1.688,0,0,1-1.194-.489c-0.318-.315-0.493-0.114-0.493-0.561v-8.3a1.651,1.651,0,0,1,.493-1.18,1.691,1.691,0,0,1,1.194-.49h11.606a1.679,1.679,0,0,1,1.192.49,1.645,1.645,0,0,1,.5,1.18v8.3Zm34.906-10.305a4.571,4.571,0,0,0-1.373-3.276A4.921,4.921,0,0,0,283.17,23H262.062V44.014h4.957V29.63a1.655,1.655,0,0,1,.494-1.182,1.685,1.685,0,0,1,1.192-.486h1.62a1.682,1.682,0,0,1,1.192.486,1.652,1.652,0,0,1,.5,1.182V44.014H277V29.63a1.648,1.648,0,0,1,.5-1.182,1.687,1.687,0,0,1,1.193-.486h2.624a1.682,1.682,0,0,1,1.192.486,1.648,1.648,0,0,1,.5,1.182V44.014h4.957V27.633Zm-78.93.78a6.574,6.574,0,0,1,1.373-4.055A4.993,4.993,0,0,1,213.841,23h16.135v4.965H215.7a1.689,1.689,0,0,0-1.2.488,1.653,1.653,0,0,0-.494,1.18v8.308c0,0.445.177,0.244,0.494,0.56a1.688,1.688,0,0,0,1.2.489h14.278v5.026H213.841a4.979,4.979,0,0,1-3.44-1.359,6.751,6.751,0,0,1-1.373-4.117V28.412Zm-25.964,15.6H168.59a4.424,4.424,0,0,1-3.2-1.36,7.216,7.216,0,0,1-1.373-4.277V23h5.022V37.779c0,0.448.175,0.245,0.494,0.562a1.686,1.686,0,0,0,1.192.485h12.341v5.187ZM140,23h21v4.916H147.045a1.686,1.686,0,0,0-1.192.486,1.4,1.4,0,0,0-.5,1.068v0.766a1.648,1.648,0,0,0,.5,1.182,1.689,1.689,0,0,0,1.192.487h13.273V35.93H147.045a1.673,1.673,0,0,0-1.192.489c-0.32.315-.5-0.266-0.5,0.179v1.295c0,0.447.175,0.245,0.5,0.562a1.687,1.687,0,0,0,1.192.488H161v5.072H144.687a4.683,4.683,0,0,1-3.314-1.36A4.569,4.569,0,0,1,140,39.378V23Zm45.056,0h20.975v4.962H192.352a1.683,1.683,0,0,0-1.192.488,1.647,1.647,0,0,0-.5,1.18V30.4a1.649,1.649,0,0,0,.5,1.182,1.687,1.687,0,0,0,1.192.487h12.622v3.912H192.352a1.674,1.674,0,0,0-1.192.489c-0.32.316-.5-0.265-0.5,0.179v1.3c0,0.446.176,0.244,0.5,0.561a1.685,1.685,0,0,0,1.192.488h13.654v5.026H189.994a4.685,4.685,0,0,1-3.315-1.36,7.46,7.46,0,0,1-1.623-4.277V23Zm30.956,35.908v-4.04a1.3,1.3,0,0,0-.375-0.917,1.265,1.265,0,0,0-.907-0.38h-0.589a1.073,1.073,0,0,0-.818.38,1.3,1.3,0,0,0-.376.917v4.04H210v-4.04a1.3,1.3,0,0,0-.376-0.917,1.591,1.591,0,0,0-1.039-.38H208.17a1.261,1.261,0,0,0-.906.38,1.294,1.294,0,0,0-.376.917v4.04h-2.907V51.024H218.93v7.884h-2.918Z" transform="translate(-139.875 -23)"/>
</svg>
